<?xml version="1.0" encoding="utf-8"?>
<svg xmlns="http://www.w3.org/2000/svg" xmlns:xlink="http://www.w3.org/1999/xlink" style="margin: auto; background: rgb(255, 255, 255); display: block; shape-rendering: auto;" width="104px" height="104px" viewBox="0 0 100 100" preserveAspectRatio="xMidYMid">
<g transform="rotate(0 50 50)">
  <rect x="47" y="29" rx="3" ry="6" width="6" height="12" fill="#71fefe">
    <animate attributeName="opacity" values="1;0" keyTimes="0;1" dur="1.8867924528301885s" begin="-1.7295597484276728s" repeatCount="indefinite"></animate>
  </rect>
</g><g transform="rotate(30 50 50)">
  <rect x="47" y="29" rx="3" ry="6" width="6" height="12" fill="#71fefe">
    <animate attributeName="opacity" values="1;0" keyTimes="0;1" dur="1.8867924528301885s" begin="-1.572327044025157s" repeatCount="indefinite"></animate>
  </rect>
</g><g transform="rotate(60 50 50)">
  <rect x="47" y="29" rx="3" ry="6" width="6" height="12" fill="#71fefe">
    <animate attributeName="opacity" values="1;0" keyTimes="0;1" dur="1.8867924528301885s" begin="-1.4150943396226414s" repeatCount="indefinite"></animate>
  </rect>
</g><g transform="rotate(90 50 50)">
  <rect x="47" y="29" rx="3" ry="6" width="6" height="12" fill="#71fefe">
    <animate attributeName="opacity" values="1;0" keyTimes="0;1" dur="1.8867924528301885s" begin="-1.2578616352201257s" repeatCount="indefinite"></animate>
  </rect>
</g><g transform="rotate(120 50 50)">
  <rect x="47" y="29" rx="3" ry="6" width="6" height="12" fill="#71fefe">
    <animate attributeName="opacity" values="1;0" keyTimes="0;1" dur="1.8867924528301885s" begin="-1.10062893081761s" repeatCount="indefinite"></animate>
  </rect>
</g><g transform="rotate(150 50 50)">
  <rect x="47" y="29" rx="3" ry="6" width="6" height="12" fill="#71fefe">
    <animate attributeName="opacity" values="1;0" keyTimes="0;1" dur="1.8867924528301885s" begin="-0.9433962264150942s" repeatCount="indefinite"></animate>
  </rect>
</g><g transform="rotate(180 50 50)">
  <rect x="47" y="29" rx="3" ry="6" width="6" height="12" fill="#71fefe">
    <animate attributeName="opacity" values="1;0" keyTimes="0;1" dur="1.8867924528301885s" begin="-0.7861635220125786s" repeatCount="indefinite"></animate>
  </rect>
</g><g transform="rotate(210 50 50)">
  <rect x="47" y="29" rx="3" ry="6" width="6" height="12" fill="#71fefe">
    <animate attributeName="opacity" values="1;0" keyTimes="0;1" dur="1.8867924528301885s" begin="-0.6289308176100629s" repeatCount="indefinite"></animate>
  </rect>
</g><g transform="rotate(240 50 50)">
  <rect x="47" y="29" rx="3" ry="6" width="6" height="12" fill="#71fefe">
    <animate attributeName="opacity" values="1;0" keyTimes="0;1" dur="1.8867924528301885s" begin="-0.4716981132075471s" repeatCount="indefinite"></animate>
  </rect>
</g><g transform="rotate(270 50 50)">
  <rect x="47" y="29" rx="3" ry="6" width="6" height="12" fill="#71fefe">
    <animate attributeName="opacity" values="1;0" keyTimes="0;1" dur="1.8867924528301885s" begin="-0.31446540880503143s" repeatCount="indefinite"></animate>
  </rect>
</g><g transform="rotate(300 50 50)">
  <rect x="47" y="29" rx="3" ry="6" width="6" height="12" fill="#71fefe">
    <animate attributeName="opacity" values="1;0" keyTimes="0;1" dur="1.8867924528301885s" begin="-0.15723270440251572s" repeatCount="indefinite"></animate>
  </rect>
</g><g transform="rotate(330 50 50)">
  <rect x="47" y="29" rx="3" ry="6" width="6" height="12" fill="#71fefe">
    <animate attributeName="opacity" values="1;0" keyTimes="0;1" dur="1.8867924528301885s" begin="0s" repeatCount="indefinite"></animate>
  </rect>
</g>
<!-- [ldio] generated by https://loading.io/ --></svg>